<svg width="105" height="28" viewBox="0 0 105 28" fill="none" xmlns="http://www.w3.org/2000/svg">
<path d="M1.66153 7.324C1.75753 5.836 2.32553 4.676 3.36553 3.844C4.42153 3.012 5.76553 2.596 7.39753 2.596C8.51753 2.596 9.48553 2.796 10.3015 3.196C11.1175 3.596 11.7335 4.14 12.1495 4.828C12.5655 5.516 12.7735 6.292 12.7735 7.156C12.7735 8.148 12.5095 8.996 11.9815 9.7C11.4535 10.404 10.8215 10.876 10.0855 11.116V11.212C11.0295 11.5 11.7655 12.028 12.2935 12.796C12.8215 13.548 13.0855 14.516 13.0855 15.7C13.0855 16.644 12.8695 17.484 12.4375 18.22C12.0055 18.956 11.3655 19.54 10.5175 19.972C9.66953 20.388 8.65353 20.596 7.46953 20.596C5.74153 20.596 4.31753 20.156 3.19753 19.276C2.09353 18.38 1.50153 17.1 1.42153 15.436H4.06153C4.12553 16.284 4.45353 16.98 5.04553 17.524C5.63753 18.052 6.43753 18.316 7.44553 18.316C8.42153 18.316 9.17353 18.052 9.70153 17.524C10.2295 16.98 10.4935 16.284 10.4935 15.436C10.4935 14.316 10.1335 13.524 9.41353 13.06C8.70953 12.58 7.62153 12.34 6.14953 12.34H5.52553V10.084H6.17353C7.46953 10.068 8.45353 9.852 9.12553 9.436C9.81353 9.02 10.1575 8.364 10.1575 7.468C10.1575 6.7 9.90953 6.092 9.41353 5.644C8.91753 5.18 8.21353 4.948 7.30153 4.948C6.40553 4.948 5.70953 5.18 5.21353 5.644C4.71753 6.092 4.42153 6.652 4.32553 7.324H1.66153ZM19.0555 2.74V20.5H16.3195V2.74H19.0555ZM34.7677 13.564C34.7677 14.06 34.7357 14.508 34.6717 14.908H24.5677C24.6477 15.964 25.0397 16.812 25.7437 17.452C26.4477 18.092 27.3117 18.412 28.3357 18.412C29.8077 18.412 30.8477 17.796 31.4557 16.564H34.4077C34.0077 17.78 33.2797 18.78 32.2237 19.564C31.1837 20.332 29.8877 20.716 28.3357 20.716C27.0717 20.716 25.9357 20.436 24.9277 19.876C23.9357 19.3 23.1517 18.5 22.5757 17.476C22.0157 16.436 21.7357 15.236 21.7357 13.876C21.7357 12.516 22.0077 11.324 22.5517 10.3C23.1117 9.26 23.8877 8.46 24.8797 7.9C25.8877 7.34 27.0397 7.06 28.3357 7.06C29.5837 7.06 30.6957 7.332 31.6717 7.876C32.6477 8.42 33.4077 9.188 33.9517 10.18C34.4957 11.156 34.7677 12.284 34.7677 13.564ZM31.9117 12.7C31.8957 11.692 31.5357 10.884 30.8317 10.276C30.1277 9.668 29.2557 9.364 28.2157 9.364C27.2717 9.364 26.4637 9.668 25.7917 10.276C25.1197 10.868 24.7197 11.676 24.5917 12.7H31.9117ZM42.7882 7.06C43.8122 7.06 44.7162 7.268 45.5002 7.684C46.3002 8.084 46.9242 8.588 47.3722 9.196V7.276H50.1322V20.716C50.1322 21.932 49.8762 23.012 49.3642 23.956C48.8522 24.916 48.1082 25.668 47.1322 26.212C46.1722 26.756 45.0202 27.028 43.6762 27.028C41.8842 27.028 40.3962 26.604 39.2122 25.756C38.0282 24.924 37.3562 23.788 37.1962 22.348H39.9082C40.1162 23.036 40.5562 23.588 41.2282 24.004C41.9162 24.436 42.7322 24.652 43.6762 24.652C44.7802 24.652 45.6682 24.316 46.3402 23.644C47.0282 22.972 47.3722 21.996 47.3722 20.716V18.508C46.9082 19.132 46.2762 19.66 45.4762 20.092C44.6922 20.508 43.7962 20.716 42.7882 20.716C41.6362 20.716 40.5802 20.428 39.6202 19.852C38.6762 19.26 37.9242 18.444 37.3642 17.404C36.8202 16.348 36.5482 15.156 36.5482 13.828C36.5482 12.5 36.8202 11.324 37.3642 10.3C37.9242 9.276 38.6762 8.484 39.6202 7.924C40.5802 7.348 41.6362 7.06 42.7882 7.06ZM47.3722 13.876C47.3722 12.964 47.1802 12.172 46.7962 11.5C46.4282 10.828 45.9402 10.316 45.3322 9.964C44.7242 9.612 44.0682 9.436 43.3642 9.436C42.6602 9.436 42.0042 9.612 41.3962 9.964C40.7882 10.3 40.2922 10.804 39.9082 11.476C39.5402 12.132 39.3562 12.916 39.3562 13.828C39.3562 14.74 39.5402 15.54 39.9082 16.228C40.2922 16.916 40.7882 17.444 41.3962 17.812C42.0202 18.164 42.6762 18.34 43.3642 18.34C44.0682 18.34 44.7242 18.164 45.3322 17.812C45.9402 17.46 46.4282 16.948 46.7962 16.276C47.1802 15.588 47.3722 14.788 47.3722 13.876ZM52.8138 13.828C52.8138 12.5 53.0858 11.324 53.6298 10.3C54.1898 9.276 54.9418 8.484 55.8858 7.924C56.8458 7.348 57.9018 7.06 59.0538 7.06C60.0938 7.06 60.9978 7.268 61.7658 7.684C62.5498 8.084 63.1738 8.588 63.6378 9.196V7.276H66.3978V20.5H63.6378V18.532C63.1738 19.156 62.5418 19.676 61.7418 20.092C60.9418 20.508 60.0298 20.716 59.0058 20.716C57.8698 20.716 56.8298 20.428 55.8858 19.852C54.9418 19.26 54.1898 18.444 53.6298 17.404C53.0858 16.348 52.8138 15.156 52.8138 13.828ZM63.6378 13.876C63.6378 12.964 63.4458 12.172 63.0618 11.5C62.6938 10.828 62.2058 10.316 61.5978 9.964C60.9898 9.612 60.3338 9.436 59.6298 9.436C58.9258 9.436 58.2698 9.612 57.6618 9.964C57.0538 10.3 56.5578 10.804 56.1738 11.476C55.8058 12.132 55.6218 12.916 55.6218 13.828C55.6218 14.74 55.8058 15.54 56.1738 16.228C56.5578 16.916 57.0538 17.444 57.6618 17.812C58.2858 18.164 58.9418 18.34 59.6298 18.34C60.3338 18.34 60.9898 18.164 61.5978 17.812C62.2058 17.46 62.6938 16.948 63.0618 16.276C63.4458 15.588 63.6378 14.788 63.6378 13.876ZM76.6634 7.06C77.7034 7.06 78.6314 7.276 79.4474 7.708C80.2794 8.14 80.9274 8.78 81.3914 9.628C81.8554 10.476 82.0874 11.5 82.0874 12.7V20.5H79.3754V13.108C79.3754 11.924 79.0794 11.02 78.4874 10.396C77.8954 9.756 77.0874 9.436 76.0634 9.436C75.0394 9.436 74.2234 9.756 73.6154 10.396C73.0234 11.02 72.7274 11.924 72.7274 13.108V20.5H69.9914V7.276H72.7274V8.788C73.1754 8.244 73.7434 7.82 74.4314 7.516C75.1354 7.212 75.8794 7.06 76.6634 7.06ZM88.7693 9.508V16.828C88.7693 17.324 88.8813 17.684 89.1053 17.908C89.3453 18.116 89.7453 18.22 90.3053 18.22H91.9853V20.5H89.8253C88.5933 20.5 87.6493 20.212 86.9933 19.636C86.3373 19.06 86.0093 18.124 86.0093 16.828V9.508H84.4493V7.276H86.0093V3.988H88.7693V7.276H91.9853V9.508H88.7693Z" fill="black"/>
<path d="M95.611 20.668C95.115 20.668 94.699 20.5 94.363 20.164C94.027 19.828 93.859 19.412 93.859 18.916C93.859 18.42 94.027 18.004 94.363 17.668C94.699 17.332 95.115 17.164 95.611 17.164C96.091 17.164 96.499 17.332 96.835 17.668C97.171 18.004 97.339 18.42 97.339 18.916C97.339 19.412 97.171 19.828 96.835 20.164C96.499 20.5 96.091 20.668 95.611 20.668Z" fill="#6C7275"/>
</svg>
