<svg width="24" height="25" viewBox="0 0 24 25" fill="none" xmlns="http://www.w3.org/2000/svg">
<path d="M18.5588 20.0488C17.5654 17.3918 15.0036 15.5 12 15.5C8.99638 15.5 6.4346 17.3918 5.44117 20.0488M18.5588 20.0488C20.6672 18.2154 22 15.5134 22 12.5C22 6.97715 17.5228 2.5 12 2.5C6.47715 2.5 2 6.97715 2 12.5C2 15.5134 3.33285 18.2154 5.44117 20.0488M18.5588 20.0488C16.8031 21.5756 14.5095 22.5 12 22.5C9.49052 22.5 7.19694 21.5756 5.44117 20.0488M15 9.5C15 11.1569 13.6569 12.5 12 12.5C10.3431 12.5 9 11.1569 9 9.5C9 7.84315 10.3431 6.5 12 6.5C13.6569 6.5 15 7.84315 15 9.5Z" stroke="#141718" stroke-width="1.5" stroke-linejoin="round"/>
</svg>
